<svg viewBox="0 0 56 63" fill="none" xmlns="http://www.w3.org/2000/svg">
<path d="M54.4282 52.9962C54.2424 46.6341 42.548 48.0847 27.8932 48.0847C13.2383 48.0847 1.54392 46.6341 1.35816 52.9962C0.375379 61.8613 8.32439 62.8472 27.8932 62.8472C47.4619 62.8472 55.4109 61.8613 54.4282 52.9962Z" fill="#FCCE59"/>
<rect x="3.40692" y="25.3721" width="48.9728" height="5.53606" rx="2.76803" fill="#91A27C"/>
<rect x="3.40692" y="32.6113" width="48.9728" height="5.11021" rx="2.5551" fill="#CC7B4E"/>
<rect x="3.40692" y="39.4253" width="48.9728" height="5.53606" rx="2.76803" fill="#91A17C"/>
<path d="M55.7864 14.9121C55.7864 22.4139 43.2982 22.3682 27.8932 22.3682C12.4882 22.3682 0 22.4139 0 14.9121C0 6.67639 12.4882 0 27.8932 0C43.2982 0 55.7864 6.67639 55.7864 14.9121Z" fill="#FCCE59"/>
<path d="M29.3612 6.30617C29.3612 7.07996 28.704 7.70724 27.8932 7.70724C27.0824 7.70724 26.4251 7.07996 26.4251 6.30617C26.4251 5.53238 27.0824 2.93604 27.8932 2.93604C28.704 2.93604 29.3612 5.53238 29.3612 6.30617Z" fill="#FFF9C5"/>
<path d="M36.9678 4.97974C37.515 5.52689 37.4938 6.43521 36.9204 7.00853C36.3471 7.58184 35.4388 7.60305 34.8917 7.0559C34.3445 6.50875 32.9734 4.20809 33.5467 3.63477C34.12 3.06146 36.4207 4.43259 36.9678 4.97974Z" fill="#FFF9C5"/>
<path d="M20.8948 7.05588C20.3477 7.60303 19.4394 7.58182 18.866 7.00851C18.2927 6.4352 18.2715 5.52688 18.8187 4.97973C19.3658 4.43258 21.6665 3.06144 22.2398 3.63476C22.8131 4.20807 21.442 6.50873 20.8948 7.05588Z" fill="#FFF9C5"/>
</svg>
