<svg width="55" height="91" viewBox="0 0 55 91" fill="none" xmlns="http://www.w3.org/2000/svg">
<path fill-rule="evenodd" clip-rule="evenodd" d="M0.00319407 27.0765H0V27.5V85.5381C0 88.2995 2.23857 90.5381 5 90.5381H50C52.7614 90.5381 55 88.2995 55 85.5381V27.5V27.0765H54.9968C54.7705 12.084 42.5464 0 27.5 0C12.4536 0 0.229508 12.084 0.00319407 27.0765ZM41.4371 27.0765H12.7168C13.1548 19.526 19.4166 13.5381 27.0769 13.5381C34.7373 13.5381 40.9991 19.526 41.4371 27.0765ZM31.5192 59.8477C33.9219 58.4578 35.5385 55.86 35.5385 52.8846C35.5385 48.4451 31.9395 44.8462 27.5 44.8462C23.0605 44.8462 19.4615 48.4451 19.4615 52.8846C19.4615 55.86 21.0781 58.4578 23.4808 59.8477V69.9664C23.4808 72.1862 25.2802 73.9857 27.5 73.9857C29.7197 73.9857 31.5192 72.1862 31.5192 69.9664V59.8477Z" fill="#F7E1D2"/>
</svg>
