<svg width="52" height="85" viewBox="0 0 52 85" fill="none" xmlns="http://www.w3.org/2000/svg">
<path fill-rule="evenodd" clip-rule="evenodd" d="M0.00301951 25.4203H0V25.8179V80C0 82.7615 2.23858 85 5 85H47C49.7614 85 52 82.7615 52 80V25.8179V25.4203H51.997C51.783 11.3448 40.2257 0 26 0C11.7743 0 0.216977 11.3448 0.00301951 25.4203ZM39.1769 25.4203H12.0231C12.4372 18.3316 18.3575 12.71 25.6 12.71C32.8425 12.71 38.7628 18.3316 39.1769 25.4203ZM29.8 56.1869C32.0716 54.882 33.6 52.4431 33.6 49.6498C33.6 45.4818 30.1974 42.103 26 42.103C21.8026 42.103 18.4 45.4818 18.4 49.6498C18.4 52.4431 19.9284 54.882 22.2 56.1869V65.6601C22.2 67.7588 23.9013 69.4601 26 69.4601C28.0987 69.4601 29.8 67.7588 29.8 65.6601V56.1869Z" fill="black" fill-opacity="0.7"/>
</svg>
